{
  "asset": {
    "version": "2.0",
    "generator": "StellarAlia builtin"
  },
  "scenes": [{"nodes": [0]}],
  "scene": 0,
  "nodes": [{"mesh": 0, "name": "Cube"}],
  "meshes": [{"name": "Cube", "primitives": [{"attributes": {"POSITION": 0, "NORMAL": 1, "TANGENT": 2, "TEXCOORD_0": 3}, "indices": 4, "mode": 4}]}],
  "accessors": [
    {"bufferView": 0, "byteOffset": 0, "componentType": 5126, "count": 24, "type": "VEC3", "min": [-0.5, -0.5, -0.5], "max": [0.5, 0.5, 0.5]},
    {"bufferView": 1, "byteOffset": 0, "componentType": 5126, "count": 24, "type": "VEC3"},
    {"bufferView": 2, "byteOffset": 0, "componentType": 5126, "count": 24, "type": "VEC4"},
    {"bufferView": 3, "byteOffset": 0, "componentType": 5126, "count": 24, "type": "VEC2"},
    {"bufferView": 4, "byteOffset": 0, "componentType": 5125, "count": 36, "type": "SCALAR"}
  ],
  "bufferViews": [
    {"buffer": 0, "byteOffset": 0,    "byteLength": 288},
    {"buffer": 0, "byteOffset": 288,  "byteLength": 288},
    {"buffer": 0, "byteOffset": 576,  "byteLength": 384},
    {"buffer": 0, "byteOffset": 960,  "byteLength": 192},
    {"buffer": 0, "byteOffset": 1152, "byteLength": 144}
  ],
  "buffers": [{"uri": "data:application/octet-stream;base64,", "byteLength": 1296}]
}
